<mxfile host="app.diagrams.net" modified="2023-10-24T06:32:29.308Z" agent="Mozilla/5.0 (Windows NT 10.0; Win64; x64) AppleWebKit/537.36 (KHTML, like Gecko) Chrome/118.0.0.0 Safari/537.36 Edg/118.0.2088.61" etag="SbeyMvg7k1kdRVokS5Jy" version="22.0.6" type="device">
  <diagram name="Trang-1" id="BqU0goz3cHn2KVpeHLS2">
    <mxGraphModel dx="927" dy="525" grid="1" gridSize="10" guides="1" tooltips="1" connect="1" arrows="1" fold="1" page="1" pageScale="1" pageWidth="827" pageHeight="1169" math="0" shadow="0">
      <root>
        <mxCell id="0" />
        <mxCell id="1" parent="0" />
        <mxCell id="YG8QkYm9NRk8mPR6nIP_-24" style="edgeStyle=orthogonalEdgeStyle;rounded=0;orthogonalLoop=1;jettySize=auto;html=1;exitX=1;exitY=0.5;exitDx=0;exitDy=0;entryX=0;entryY=0.5;entryDx=0;entryDy=0;" edge="1" parent="1" source="YG8QkYm9NRk8mPR6nIP_-3" target="YG8QkYm9NRk8mPR6nIP_-4">
          <mxGeometry relative="1" as="geometry" />
        </mxCell>
        <mxCell id="YG8QkYm9NRk8mPR6nIP_-3" value="Cart Screen" style="rounded=0;whiteSpace=wrap;html=1;" vertex="1" parent="1">
          <mxGeometry x="80" y="340" width="120" height="60" as="geometry" />
        </mxCell>
        <mxCell id="YG8QkYm9NRk8mPR6nIP_-18" style="rounded=0;orthogonalLoop=1;jettySize=auto;html=1;exitX=0.5;exitY=1;exitDx=0;exitDy=0;entryX=0;entryY=0.5;entryDx=0;entryDy=0;startArrow=diamondThin;startFill=0;" edge="1" parent="1" source="YG8QkYm9NRk8mPR6nIP_-4" target="YG8QkYm9NRk8mPR6nIP_-8">
          <mxGeometry relative="1" as="geometry" />
        </mxCell>
        <mxCell id="YG8QkYm9NRk8mPR6nIP_-25" style="rounded=0;orthogonalLoop=1;jettySize=auto;html=1;exitX=0.5;exitY=0;exitDx=0;exitDy=0;entryX=0;entryY=0.5;entryDx=0;entryDy=0;startArrow=diamondThin;startFill=0;" edge="1" parent="1" source="YG8QkYm9NRk8mPR6nIP_-4" target="YG8QkYm9NRk8mPR6nIP_-11">
          <mxGeometry relative="1" as="geometry" />
        </mxCell>
        <mxCell id="YG8QkYm9NRk8mPR6nIP_-26" style="edgeStyle=orthogonalEdgeStyle;rounded=0;orthogonalLoop=1;jettySize=auto;html=1;exitX=1;exitY=0.5;exitDx=0;exitDy=0;entryX=0;entryY=0.5;entryDx=0;entryDy=0;" edge="1" parent="1" source="YG8QkYm9NRk8mPR6nIP_-4" target="YG8QkYm9NRk8mPR6nIP_-5">
          <mxGeometry relative="1" as="geometry" />
        </mxCell>
        <mxCell id="YG8QkYm9NRk8mPR6nIP_-4" value="Delivery Form" style="rounded=0;whiteSpace=wrap;html=1;" vertex="1" parent="1">
          <mxGeometry x="280" y="340" width="120" height="60" as="geometry" />
        </mxCell>
        <mxCell id="YG8QkYm9NRk8mPR6nIP_-28" style="edgeStyle=orthogonalEdgeStyle;rounded=0;orthogonalLoop=1;jettySize=auto;html=1;exitX=1;exitY=0.5;exitDx=0;exitDy=0;entryX=0;entryY=0.5;entryDx=0;entryDy=0;" edge="1" parent="1" source="YG8QkYm9NRk8mPR6nIP_-5" target="YG8QkYm9NRk8mPR6nIP_-7">
          <mxGeometry relative="1" as="geometry" />
        </mxCell>
        <mxCell id="YG8QkYm9NRk8mPR6nIP_-5" value="Invoice Screen" style="rounded=0;whiteSpace=wrap;html=1;" vertex="1" parent="1">
          <mxGeometry x="480" y="340" width="120" height="60" as="geometry" />
        </mxCell>
        <mxCell id="YG8QkYm9NRk8mPR6nIP_-19" style="rounded=0;orthogonalLoop=1;jettySize=auto;html=1;exitX=0.5;exitY=1;exitDx=0;exitDy=0;entryX=1;entryY=0.5;entryDx=0;entryDy=0;startArrow=diamond;startFill=0;" edge="1" parent="1" source="YG8QkYm9NRk8mPR6nIP_-7" target="YG8QkYm9NRk8mPR6nIP_-8">
          <mxGeometry relative="1" as="geometry" />
        </mxCell>
        <mxCell id="YG8QkYm9NRk8mPR6nIP_-29" style="edgeStyle=orthogonalEdgeStyle;rounded=0;orthogonalLoop=1;jettySize=auto;html=1;exitX=0.5;exitY=0;exitDx=0;exitDy=0;" edge="1" parent="1" source="YG8QkYm9NRk8mPR6nIP_-7" target="YG8QkYm9NRk8mPR6nIP_-9">
          <mxGeometry relative="1" as="geometry" />
        </mxCell>
        <mxCell id="YG8QkYm9NRk8mPR6nIP_-7" value="Payment Screen" style="rounded=0;whiteSpace=wrap;html=1;" vertex="1" parent="1">
          <mxGeometry x="680" y="340" width="120" height="60" as="geometry" />
        </mxCell>
        <mxCell id="YG8QkYm9NRk8mPR6nIP_-8" value="Error Screen" style="rounded=0;whiteSpace=wrap;html=1;" vertex="1" parent="1">
          <mxGeometry x="480" y="450" width="120" height="60" as="geometry" />
        </mxCell>
        <mxCell id="YG8QkYm9NRk8mPR6nIP_-9" value="Result Screen" style="rounded=0;whiteSpace=wrap;html=1;" vertex="1" parent="1">
          <mxGeometry x="680" y="200" width="120" height="60" as="geometry" />
        </mxCell>
        <mxCell id="YG8QkYm9NRk8mPR6nIP_-27" style="edgeStyle=orthogonalEdgeStyle;rounded=0;orthogonalLoop=1;jettySize=auto;html=1;exitX=0.5;exitY=1;exitDx=0;exitDy=0;entryX=0.5;entryY=0;entryDx=0;entryDy=0;" edge="1" parent="1" source="YG8QkYm9NRk8mPR6nIP_-11" target="YG8QkYm9NRk8mPR6nIP_-5">
          <mxGeometry relative="1" as="geometry" />
        </mxCell>
        <mxCell id="YG8QkYm9NRk8mPR6nIP_-11" value="Place rush order screen" style="rounded=0;whiteSpace=wrap;html=1;" vertex="1" parent="1">
          <mxGeometry x="480" y="200" width="120" height="60" as="geometry" />
        </mxCell>
      </root>
    </mxGraphModel>
  </diagram>
</mxfile>
